<svg id="svg" version="1.1" xmlns="http://www.w3.org/2000/svg" xmlns:xlink="http://www.w3.org/1999/xlink" width="400" height="400" viewBox="0, 0, 400,400"><g id="svgg"><path id="path0" d="M189.074 39.253 C 188.667 39.427,186.744 40.958,184.802 42.655 C 182.860 44.352,152.933 70.348,118.298 100.424 C 45.708 163.457,50.877 158.568,49.413 165.589 C 48.524 169.852,48.795 199.566,49.742 201.667 C 51.782 206.193,56.976 208.207,61.296 206.147 C 62.537 205.555,84.152 187.218,126.780 150.595 C 161.777 120.527,190.527 95.927,190.669 95.927 C 190.810 95.928,219.722 120.660,254.916 150.886 C 290.111 181.113,319.444 206.070,320.101 206.348 C 323.877 207.941,328.718 206.352,330.916 202.798 L 332.037 200.985 332.141 183.919 C 332.262 163.952,332.199 163.473,328.772 158.199 C 327.958 156.945,312.229 143.179,235.408 76.481 C 187.143 34.577,191.611 38.167,189.074 39.253 M256.529 61.644 C 252.090 63.259,250.741 65.817,250.741 72.615 L 250.741 77.706 268.056 92.773 L 285.370 107.841 285.468 87.902 C 285.540 73.045,285.452 67.680,285.120 66.852 C 284.379 65.001,282.939 63.351,281.146 62.296 L 279.444 61.296 268.704 61.209 C 260.220 61.141,257.662 61.232,256.529 61.644 M167.222 136.545 C 161.032 137.907,159.884 140.257,159.700 151.944 L 159.561 160.741 172.744 160.741 L 185.926 160.741 185.926 148.519 L 185.926 136.296 176.944 136.339 C 172.005 136.363,167.630 136.456,167.222 136.545 M195.185 148.491 L 195.185 160.741 208.333 160.741 L 221.481 160.741 221.481 152.269 C 221.481 137.323,220.682 136.556,204.907 136.362 L 195.185 136.242 195.185 148.491 M159.700 178.241 C 159.920 192.842,160.840 193.694,176.389 193.700 L 185.926 193.704 185.926 181.667 L 185.926 169.630 172.748 169.630 L 159.570 169.630 159.700 178.241 M195.185 181.667 L 195.185 193.704 204.722 193.687 C 220.535 193.660,221.223 193.031,221.408 178.426 L 221.519 169.630 208.352 169.630 L 195.185 169.630 195.185 181.667 M106.473 219.705 C 106.372 219.969,106.333 233.019,106.386 248.704 L 106.481 277.222 109.169 277.331 L 111.856 277.440 111.762 248.442 L 111.667 219.444 109.162 219.335 C 107.369 219.256,106.604 219.362,106.473 219.705 M26.667 222.627 C 14.858 223.453,7.720 231.232,10.132 240.646 C 11.785 247.099,15.043 249.233,28.704 252.812 C 39.675 255.687,43.296 258.207,43.325 262.990 C 43.388 273.249,25.500 276.422,13.305 268.314 C 11.873 267.362,10.646 266.644,10.580 266.718 C 10.514 266.791,10.002 267.762,9.443 268.875 L 8.426 270.899 9.647 271.919 C 18.872 279.620,38.831 279.640,45.579 271.954 C 48.873 268.202,49.860 261.319,47.697 257.182 C 45.366 252.725,41.714 250.740,30.350 247.753 C 18.187 244.557,15.543 242.664,15.564 237.166 C 15.599 227.832,29.615 224.186,41.911 230.312 L 44.748 231.726 45.718 229.477 C 46.843 226.870,46.860 226.900,43.356 225.327 C 38.309 223.063,32.918 222.191,26.667 222.627 M71.077 236.302 C 67.004 236.688,61.726 238.670,58.716 240.945 C 57.922 241.545,58.237 242.511,59.965 244.778 L 60.643 245.668 61.896 244.728 C 67.741 240.343,77.634 239.709,82.329 243.420 C 84.475 245.116,85.289 247.031,85.482 250.833 L 85.646 254.074 78.471 254.081 C 60.940 254.099,54.484 258.806,57.546 269.337 C 60.246 278.628,78.345 280.918,84.747 272.779 C 85.821 271.414,85.926 271.579,85.926 274.630 L 85.926 277.407 88.534 277.407 L 91.142 277.407 91.025 262.315 C 90.922 249.127,90.825 246.979,90.259 245.294 C 87.987 238.538,81.178 235.346,71.077 236.302 M177.037 236.487 C 173.374 237.236,168.674 239.206,166.551 240.882 C 165.963 241.346,167.566 245.556,168.331 245.556 C 168.393 245.556,169.292 244.985,170.328 244.288 C 174.220 241.669,179.717 240.406,184.404 241.056 C 190.392 241.886,193.034 244.767,193.557 251.039 L 193.810 254.074 186.562 254.074 C 169.909 254.074,164.077 257.447,164.907 266.598 C 165.898 277.528,183.453 281.751,192.072 273.132 L 193.704 271.501 193.704 274.269 L 193.704 277.037 196.481 277.037 L 199.259 277.037 199.259 263.587 C 199.259 247.025,198.830 244.342,195.593 240.654 C 192.152 236.735,184.373 234.988,177.037 236.487 M229.630 236.495 C 226.298 237.413,223.639 238.903,221.574 241.011 L 219.630 242.996 219.630 239.646 L 219.630 236.296 216.852 236.296 L 214.074 236.296 214.074 256.667 L 214.074 277.037 216.852 277.037 L 219.630 277.037 219.636 265.833 C 219.645 251.108,220.254 248.165,224.065 244.453 C 230.021 238.652,240.152 239.878,243.704 246.830 L 245.000 249.368 245.113 263.202 L 245.227 277.037 247.957 277.037 L 250.688 277.037 250.836 264.537 C 250.991 251.520,251.086 250.679,252.770 247.423 C 256.774 239.679,269.342 238.430,273.972 245.315 C 275.998 248.330,276.048 248.733,276.202 263.426 L 276.345 277.037 279.099 277.037 L 281.852 277.037 281.839 263.796 C 281.822 247.091,281.260 244.204,277.242 240.186 C 270.386 233.329,254.510 235.248,249.669 243.519 C 249.246 244.242,249.225 244.242,248.784 243.558 C 244.722 237.239,237.114 234.434,229.630 236.495 M307.778 236.511 C 296.834 239.391,290.700 250.663,293.698 262.386 C 297.181 276.005,314.383 281.947,326.763 273.807 C 330.447 271.384,330.630 270.688,328.194 268.370 L 327.065 267.296 325.586 268.632 C 316.576 276.772,299.547 271.268,298.811 259.978 L 298.704 258.333 315.804 258.237 L 332.905 258.141 332.724 255.274 C 331.875 241.806,320.413 233.186,307.778 236.511 M119.969 237.130 C 120.145 237.588,122.747 243.463,125.749 250.185 C 128.752 256.907,132.498 265.324,134.074 268.889 C 135.649 272.454,137.154 275.829,137.417 276.389 C 138.176 278.000,143.032 277.953,143.874 276.326 C 144.708 274.713,161.163 237.697,161.381 236.944 C 161.547 236.369,161.264 236.297,158.839 236.301 L 156.111 236.306 152.339 244.912 C 139.246 274.788,140.990 271.804,139.135 267.499 C 138.367 265.717,134.965 257.968,131.577 250.278 L 125.415 236.296 122.532 236.296 C 119.693 236.296,119.653 236.309,119.969 237.130 M338.736 237.685 C 339.311 238.449,342.301 242.324,345.380 246.296 C 353.365 256.599,352.845 255.807,352.249 256.761 C 351.972 257.204,348.436 261.860,344.391 267.106 C 340.347 272.352,337.037 276.733,337.037 276.841 C 337.037 276.949,338.412 277.029,340.093 277.020 L 343.148 277.003 349.444 268.688 C 352.907 264.114,355.907 260.380,356.111 260.389 C 356.315 260.398,359.298 264.148,362.741 268.721 L 369.001 277.037 372.115 277.037 C 374.505 277.037,375.165 276.929,374.955 276.574 C 374.804 276.319,371.197 271.643,366.939 266.181 C 362.681 260.719,359.274 256.052,359.367 255.810 C 359.460 255.568,362.691 251.282,366.547 246.286 C 370.403 241.290,373.684 236.998,373.838 236.749 C 374.050 236.407,373.393 236.296,371.145 236.296 L 368.172 236.296 362.205 244.074 C 358.923 248.352,356.126 251.842,355.989 251.830 C 355.853 251.818,353.074 248.318,349.815 244.052 L 343.889 236.297 340.789 236.297 L 337.690 236.296 338.736 237.685 M315.598 240.746 C 321.518 241.860,326.779 247.271,327.116 252.593 L 327.222 254.259 313.171 254.356 C 297.739 254.463,298.324 254.558,298.887 252.047 C 300.649 244.185,307.882 239.293,315.598 240.746 M193.625 261.565 C 193.811 267.176,190.569 271.215,184.641 272.759 C 175.324 275.186,167.584 269.090,171.229 262.197 C 172.956 258.931,175.755 258.203,186.296 258.281 L 193.519 258.333 193.625 261.565 M85.556 262.135 C 85.556 265.661,85.523 265.799,84.246 267.695 C 78.542 276.165,62.587 274.767,62.516 265.792 C 62.469 259.873,65.138 258.582,77.500 258.544 L 85.556 258.519 85.556 262.135 " stroke="none" fill="#fcfbfb" fill-rule="evenodd"></path><path id="path1" d="M0.000 200.000 L 0.000 400.000 200.000 400.000 L 400.000 400.000 400.000 200.000 L 400.000 0.000 200.000 0.000 L 0.000 0.000 0.000 200.000 M193.783 39.938 C 194.453 40.515,209.000 53.133,226.111 67.978 C 298.240 130.556,327.649 156.235,328.559 157.432 C 329.982 159.306,331.413 162.294,332.040 164.701 C 332.847 167.799,332.853 198.251,332.048 200.951 C 330.453 206.295,324.391 208.887,319.544 206.296 C 318.591 205.787,289.294 180.870,254.439 150.926 C 219.585 120.981,190.940 96.436,190.783 96.379 C 190.627 96.323,161.845 120.882,126.823 150.954 C 91.802 181.025,62.481 205.982,61.667 206.412 C 57.256 208.742,50.598 205.955,49.286 201.230 C 48.606 198.780,48.759 166.580,49.464 163.874 C 50.842 158.579,50.316 159.102,81.852 131.719 C 96.417 119.072,126.083 93.297,147.778 74.442 C 169.472 55.586,187.634 39.873,188.138 39.524 C 189.641 38.482,192.323 38.678,193.783 39.938 M280.961 61.737 C 285.928 64.395,285.962 64.584,285.842 88.416 L 285.741 108.499 268.148 93.227 L 250.556 77.955 250.442 73.329 C 250.261 65.983,251.772 63.008,256.573 61.259 C 259.157 60.317,279.036 60.707,280.961 61.737 M186.209 148.426 L 186.306 160.741 172.968 160.741 L 159.630 160.741 159.633 151.759 L 159.637 142.778 160.713 140.901 C 163.273 136.438,164.761 136.002,177.222 136.066 L 186.111 136.111 186.209 148.426 M216.108 136.693 C 220.707 138.320,221.600 140.696,221.771 151.759 L 221.910 160.741 208.362 160.741 L 194.815 160.741 194.815 148.580 C 194.815 141.892,194.938 136.297,195.088 136.146 C 195.604 135.630,214.493 136.122,216.108 136.693 M186.296 181.693 L 186.296 194.127 176.204 194.008 C 164.956 193.875,164.577 193.796,161.978 191.051 C 159.784 188.733,159.630 187.880,159.630 178.103 L 159.630 169.259 172.963 169.259 L 186.296 169.259 186.296 181.693 M221.782 178.241 C 221.569 193.193,220.590 194.074,204.192 194.074 L 194.815 194.074 194.815 181.667 L 194.815 169.259 208.362 169.259 L 221.910 169.259 221.782 178.241 M112.222 248.333 L 112.222 277.407 109.074 277.407 L 105.926 277.407 105.926 248.333 L 105.926 219.259 109.074 219.259 L 112.222 219.259 112.222 248.333 M36.852 222.842 C 40.186 223.476,44.474 225.133,46.047 226.395 L 47.094 227.235 46.294 229.265 C 45.069 232.374,45.150 232.347,41.893 230.717 C 30.007 224.768,15.926 228.221,15.926 237.086 C 15.926 242.582,18.731 244.386,33.097 248.128 C 46.978 251.744,52.089 258.335,48.484 267.972 C 44.358 278.997,23.477 281.830,10.648 273.103 C 7.782 271.154,7.768 271.103,9.265 268.138 C 10.583 265.526,10.310 265.602,12.467 267.249 C 25.467 277.172,47.493 271.999,42.130 260.283 C 40.605 256.952,38.157 255.679,28.519 253.201 C 13.200 249.264,8.768 245.397,9.341 236.470 C 10.036 225.639,21.555 219.933,36.852 222.842 M80.677 236.517 C 90.103 238.620,91.843 243.071,91.849 265.093 L 91.852 277.407 88.704 277.407 L 85.556 277.407 85.556 274.925 L 85.556 272.442 84.167 273.748 C 78.169 279.385,65.329 279.403,59.709 273.783 C 55.572 269.646,55.643 261.663,59.851 257.784 C 63.247 254.654,65.891 254.026,76.618 253.804 L 85.274 253.624 85.115 250.608 C 84.618 241.173,72.695 237.997,62.695 244.636 C 60.263 246.251,60.116 246.211,58.704 243.537 L 57.593 241.434 58.704 240.524 C 63.542 236.562,73.083 234.822,80.677 236.517 M187.482 235.965 C 197.810 238.119,199.622 242.437,199.627 264.907 L 199.630 277.407 196.667 277.407 L 193.704 277.407 193.704 274.738 L 193.704 272.068 192.130 273.602 C 182.954 282.545,164.635 277.448,164.692 265.968 C 164.739 256.568,169.639 253.727,185.833 253.711 L 193.333 253.704 193.333 251.734 C 193.333 241.387,181.100 237.589,170.431 244.623 C 168.011 246.218,168.447 246.329,166.854 243.708 C 165.288 241.129,165.268 241.194,168.161 239.436 C 173.525 236.178,181.571 234.732,187.482 235.965 M239.748 236.142 C 243.404 237.089,246.424 239.291,248.536 242.551 L 249.109 243.436 251.236 241.206 C 259.416 232.630,275.144 233.814,280.021 243.374 C 281.981 247.217,282.222 249.470,282.222 263.948 L 282.222 277.407 279.266 277.407 C 275.597 277.407,275.957 278.959,275.832 262.593 C 275.734 249.766,275.710 249.399,274.880 247.593 C 270.809 238.740,257.303 239.190,252.683 248.333 C 251.438 250.798,251.111 254.530,251.111 266.275 L 251.111 277.407 248.177 277.407 L 245.243 277.407 245.101 264.167 C 244.940 249.089,244.676 247.422,242.020 244.687 C 237.460 239.992,228.645 240.186,223.874 245.087 C 220.500 248.554,220.000 251.241,220.000 265.906 L 220.000 277.407 217.037 277.407 L 214.074 277.407 214.074 256.667 L 214.074 235.926 216.852 235.926 L 219.630 235.926 219.630 239.074 C 219.630 242.728,219.584 242.685,221.388 240.688 C 225.339 236.315,233.048 234.406,239.748 236.142 M318.423 236.111 C 327.071 238.151,332.963 246.283,332.963 256.179 L 332.963 258.889 315.886 258.889 L 298.809 258.889 299.054 259.907 C 299.767 262.858,300.087 263.672,301.196 265.353 C 306.095 272.773,317.570 274.389,324.907 268.692 C 327.506 266.674,327.318 266.674,328.996 268.682 C 330.757 270.789,330.729 271.102,328.611 272.970 C 317.442 282.823,297.186 277.167,293.542 263.179 C 289.120 246.201,301.962 232.230,318.423 236.111 M344.349 236.389 C 344.775 236.847,347.486 240.306,350.372 244.074 C 353.259 247.843,355.759 250.977,355.929 251.040 C 356.099 251.102,358.927 247.644,362.215 243.354 L 368.192 235.556 371.297 235.556 C 373.004 235.556,374.494 235.706,374.607 235.890 C 374.721 236.073,371.380 240.674,367.183 246.113 L 359.552 256.002 360.610 257.426 C 361.191 258.209,364.792 262.846,368.611 267.731 C 372.431 272.616,375.556 276.791,375.556 277.010 C 375.556 277.263,374.352 277.407,372.231 277.407 L 368.906 277.407 367.509 275.639 C 366.740 274.667,363.876 270.924,361.144 267.321 C 358.412 263.719,356.059 260.843,355.916 260.932 C 355.773 261.020,352.864 264.763,349.451 269.250 L 343.247 277.407 339.957 277.407 C 335.607 277.407,335.236 278.340,344.226 266.667 C 351.257 257.537,352.248 256.187,352.143 255.882 C 352.085 255.711,351.162 254.443,350.093 253.064 C 349.023 251.684,345.647 247.333,342.590 243.395 C 339.533 239.457,337.126 236.082,337.241 235.895 C 337.731 235.103,343.528 235.505,344.349 236.389 M133.015 252.586 C 137.021 261.648,140.439 269.285,140.612 269.559 C 140.825 269.896,141.907 267.808,143.969 263.083 C 145.643 259.249,148.906 251.861,151.221 246.667 C 153.535 241.472,155.536 236.931,155.666 236.574 C 155.944 235.814,161.852 235.575,161.852 236.325 C 161.852 236.782,159.407 242.431,150.358 262.883 L 143.920 277.433 140.606 277.328 L 137.293 277.222 136.034 274.259 C 135.341 272.630,132.878 267.046,130.560 261.852 C 120.714 239.788,119.305 236.523,119.493 236.218 C 119.602 236.041,121.051 235.945,122.712 236.004 L 125.732 236.111 133.015 252.586 M308.704 241.606 C 303.637 243.271,298.889 248.978,298.889 253.401 C 298.889 253.567,305.222 253.704,312.963 253.704 C 324.497 253.704,327.037 253.614,327.037 253.206 C 327.037 245.696,316.515 239.038,308.704 241.606 M71.852 258.887 C 69.713 259.020,67.630 259.266,67.222 259.434 C 60.359 262.261,61.941 271.223,69.555 272.650 C 78.287 274.286,85.185 269.614,85.185 262.063 L 85.185 258.519 80.463 258.582 C 77.866 258.616,73.991 258.754,71.852 258.887 M176.296 259.107 C 169.379 260.938,168.661 268.812,175.139 271.778 C 183.325 275.526,193.333 270.026,193.333 261.779 L 193.333 258.519 185.833 258.543 C 180.514 258.560,177.741 258.724,176.296 259.107 " stroke="none" fill="#f49c24" fill-rule="evenodd"></path><path id="path2" d="M263.426 61.017 C 266.023 61.081,270.273 61.081,272.870 61.017 C 275.468 60.954,273.343 60.902,268.148 60.902 C 262.954 60.902,260.829 60.954,263.426 61.017 M166.204 169.537 C 169.921 169.597,176.005 169.597,179.722 169.537 C 183.440 169.476,180.398 169.427,172.963 169.427 C 165.528 169.427,162.486 169.476,166.204 169.537 M201.783 169.537 C 205.514 169.597,211.514 169.597,215.117 169.536 C 218.719 169.476,215.667 169.426,208.333 169.426 C 201.000 169.427,198.052 169.476,201.783 169.537 M172.707 193.981 C 175.316 194.044,179.482 194.044,181.966 193.980 C 184.450 193.916,182.315 193.864,177.222 193.864 C 172.130 193.865,170.098 193.917,172.707 193.981 M199.744 193.981 C 202.353 194.044,206.520 194.044,209.003 193.980 C 211.487 193.916,209.352 193.864,204.259 193.864 C 199.167 193.865,197.135 193.917,199.744 193.981 M106.102 248.333 C 106.102 264.222,106.148 270.668,106.204 262.658 C 106.259 254.647,106.259 241.647,106.204 233.769 C 106.148 225.890,106.102 232.444,106.102 248.333 M27.870 227.680 C 28.838 227.756,30.421 227.756,31.389 227.680 C 32.356 227.603,31.565 227.541,29.630 227.541 C 27.694 227.541,26.903 227.603,27.870 227.680 M112.025 256.111 C 112.025 267.722,112.072 272.419,112.129 266.548 C 112.187 260.677,112.187 251.177,112.129 245.437 C 112.072 239.696,112.025 244.500,112.025 256.111 M234.167 235.811 C 234.523 235.904,235.106 235.904,235.463 235.811 C 235.819 235.718,235.528 235.641,234.815 235.641 C 234.102 235.641,233.810 235.718,234.167 235.811 M263.981 235.827 C 264.847 235.905,266.264 235.905,267.130 235.827 C 267.995 235.749,267.287 235.685,265.556 235.685 C 263.824 235.685,263.116 235.749,263.981 235.827 M310.282 235.818 C 310.743 235.906,311.409 235.903,311.764 235.810 C 312.118 235.717,311.741 235.645,310.926 235.649 C 310.111 235.653,309.821 235.729,310.282 235.818 M314.356 235.818 C 314.817 235.906,315.484 235.903,315.838 235.810 C 316.192 235.717,315.815 235.645,315.000 235.649 C 314.185 235.653,313.895 235.729,314.356 235.818 M9.353 237.222 C 9.357 238.037,9.433 238.327,9.521 237.866 C 9.610 237.405,9.606 236.739,9.514 236.385 C 9.421 236.030,9.349 236.407,9.353 237.222 M119.501 236.204 C 119.406 236.356,120.271 236.434,121.423 236.377 C 125.041 236.196,125.477 236.039,122.522 235.981 C 120.955 235.951,119.596 236.051,119.501 236.204 M157.695 236.198 C 158.566 236.276,159.899 236.275,160.658 236.195 C 161.416 236.116,160.704 236.052,159.074 236.053 C 157.444 236.054,156.824 236.119,157.695 236.198 M245.185 239.005 C 245.185 239.069,245.727 239.610,246.389 240.208 L 247.593 241.296 246.505 240.093 C 245.491 238.971,245.185 238.719,245.185 239.005 M276.296 239.005 C 276.296 239.069,276.838 239.610,277.500 240.208 L 278.704 241.296 277.616 240.093 C 276.602 238.971,276.296 238.719,276.296 239.005 M298.499 241.389 L 297.222 242.778 298.611 241.501 C 299.904 240.313,300.170 240.000,299.887 240.000 C 299.826 240.000,299.201 240.625,298.499 241.389 M325.926 240.116 C 325.926 240.180,326.468 240.721,327.130 241.320 L 328.333 242.407 327.246 241.204 C 326.232 240.082,325.926 239.830,325.926 240.116 M91.205 249.815 C 91.209 250.630,91.284 250.919,91.373 250.459 C 91.462 249.998,91.458 249.331,91.366 248.977 C 91.273 248.623,91.200 249.000,91.205 249.815 M282.019 263.889 C 282.019 271.222,282.068 274.275,282.129 270.672 C 282.190 267.070,282.190 261.070,282.129 257.339 C 282.069 253.608,282.019 256.556,282.019 263.889 M181.965 253.980 C 184.165 254.046,187.665 254.046,189.742 253.980 C 191.819 253.914,190.019 253.860,185.741 253.860 C 181.463 253.861,179.764 253.915,181.965 253.980 M298.519 271.667 C 299.210 272.380,299.858 272.963,299.960 272.963 C 300.062 272.963,299.580 272.380,298.889 271.667 C 298.198 270.954,297.549 270.370,297.447 270.370 C 297.345 270.370,297.827 270.954,298.519 271.667 M85.683 274.630 C 85.684 276.259,85.749 276.880,85.827 276.009 C 85.905 275.138,85.904 273.804,85.825 273.046 C 85.745 272.287,85.681 273.000,85.683 274.630 M71.950 273.229 C 72.513 273.314,73.346 273.312,73.801 273.224 C 74.257 273.136,73.796 273.066,72.778 273.069 C 71.759 273.072,71.387 273.144,71.950 273.229 M338.252 277.310 C 339.226 277.386,340.726 277.385,341.585 277.308 C 342.445 277.230,341.648 277.167,339.815 277.169 C 337.981 277.170,337.278 277.233,338.252 277.310 M370.098 277.303 C 370.661 277.388,371.494 277.386,371.950 277.298 C 372.405 277.210,371.944 277.140,370.926 277.143 C 369.907 277.146,369.535 277.218,370.098 277.303 M311.759 277.669 C 312.218 277.757,312.968 277.757,313.426 277.669 C 313.884 277.581,313.509 277.508,312.593 277.508 C 311.676 277.508,311.301 277.581,311.759 277.669 M315.463 277.669 C 315.921 277.757,316.671 277.757,317.130 277.669 C 317.588 277.581,317.213 277.508,316.296 277.508 C 315.380 277.508,315.005 277.581,315.463 277.669 " stroke="none" fill="#fcbf74" fill-rule="evenodd"></path><path id="path3" d="M285.645 88.286 C 285.560 106.867,285.522 107.844,284.907 107.380 C 284.293 106.918,284.292 106.928,284.899 107.591 C 285.936 108.724,285.937 108.712,285.833 88.299 L 285.734 68.704 285.645 88.286 M250.450 73.381 C 250.381 77.101,250.459 77.756,251.019 78.195 C 251.589 78.643,251.613 78.634,251.216 78.126 C 250.942 77.773,250.720 75.897,250.648 73.311 L 250.529 69.074 250.450 73.381 M186.092 148.519 C 186.092 155.343,186.142 158.134,186.203 154.722 C 186.264 151.310,186.264 145.727,186.203 142.315 C 186.142 138.903,186.092 141.694,186.092 148.519 M221.638 152.778 C 221.639 157.056,221.692 158.755,221.758 156.554 C 221.824 154.353,221.823 150.853,221.758 148.776 C 221.692 146.699,221.638 148.500,221.638 152.778 M54.242 156.019 L 52.778 157.593 54.352 156.129 C 55.816 154.767,56.096 154.444,55.816 154.444 C 55.755 154.444,55.047 155.153,54.242 156.019 M332.391 183.519 C 332.391 191.870,332.440 195.340,332.499 191.229 C 332.559 187.117,332.559 180.284,332.500 176.043 C 332.440 171.803,332.391 175.167,332.391 183.519 M186.092 181.667 C 186.092 188.389,186.142 191.191,186.203 187.894 C 186.264 184.597,186.264 179.097,186.203 175.672 C 186.142 172.247,186.092 174.944,186.092 181.667 M221.639 177.407 C 221.639 181.787,221.692 183.579,221.758 181.389 C 221.823 179.199,221.823 175.616,221.758 173.426 C 221.692 171.236,221.639 173.028,221.639 177.407 M26.581 222.491 C 27.246 222.573,28.246 222.571,28.803 222.487 C 29.359 222.402,28.815 222.335,27.593 222.337 C 26.370 222.339,25.915 222.408,26.581 222.491 M31.025 222.491 C 31.691 222.573,32.691 222.571,33.247 222.487 C 33.804 222.402,33.259 222.335,32.037 222.337 C 30.815 222.339,30.359 222.408,31.025 222.491 M71.389 236.187 C 71.847 236.276,72.597 236.276,73.056 236.187 C 73.514 236.099,73.139 236.027,72.222 236.027 C 71.306 236.027,70.931 236.099,71.389 236.187 M76.204 236.187 C 76.662 236.276,77.412 236.276,77.870 236.187 C 78.329 236.099,77.954 236.027,77.037 236.027 C 76.120 236.027,75.745 236.099,76.204 236.187 M215.278 236.196 C 216.042 236.276,217.292 236.276,218.056 236.196 C 218.819 236.116,218.194 236.050,216.667 236.050 C 215.139 236.050,214.514 236.116,215.278 236.196 M337.407 236.251 C 337.407 236.430,337.699 236.805,338.056 237.084 C 338.640 237.542,338.655 237.530,338.208 236.959 C 337.749 236.374,337.959 236.317,340.986 236.202 L 344.259 236.078 340.833 236.002 C 338.949 235.960,337.407 236.072,337.407 236.251 M367.557 236.759 C 366.853 237.592,366.853 237.592,367.622 236.944 C 368.548 236.165,374.325 235.960,373.854 236.724 C 373.690 236.989,373.752 237.051,374.017 236.887 C 375.072 236.235,374.215 235.926,371.354 235.926 C 368.604 235.926,368.185 236.018,367.557 236.759 M312.130 240.632 C 312.588 240.720,313.338 240.720,313.796 240.632 C 314.255 240.543,313.880 240.471,312.963 240.471 C 312.046 240.471,311.671 240.543,312.130 240.632 M181.019 241.002 C 181.477 241.090,182.227 241.090,182.685 241.002 C 183.144 240.914,182.769 240.842,181.852 240.842 C 180.935 240.842,180.560 240.914,181.019 241.002 M232.315 241.006 C 232.875 241.091,233.792 241.091,234.352 241.006 C 234.912 240.921,234.454 240.852,233.333 240.852 C 232.213 240.852,231.755 240.921,232.315 241.006 M263.247 241.009 C 263.913 241.092,264.913 241.090,265.470 241.005 C 266.026 240.921,265.481 240.853,264.259 240.856 C 263.037 240.858,262.582 240.927,263.247 241.009 M16.667 241.597 C 16.667 241.661,17.208 242.203,17.870 242.801 L 19.074 243.889 17.986 242.685 C 16.972 241.563,16.667 241.311,16.667 241.597 M237.778 241.747 C 238.083 241.860,238.792 242.185,239.352 242.468 C 239.912 242.751,240.370 242.899,240.370 242.797 C 240.370 242.506,238.239 241.478,237.704 241.511 C 237.380 241.530,237.405 241.608,237.778 241.747 M268.920 241.620 C 269.301 241.961,271.481 242.963,271.481 242.797 C 271.481 242.583,269.428 241.481,269.031 241.481 C 268.885 241.481,268.835 241.544,268.920 241.620 M306.204 242.064 C 304.768 242.843,304.930 243.112,306.389 242.370 C 307.785 241.660,308.032 241.476,307.562 241.496 C 307.375 241.504,306.764 241.760,306.204 242.064 M19.259 243.885 C 19.259 244.139,21.527 245.263,21.696 245.094 C 21.777 245.013,21.261 244.670,20.551 244.332 C 19.840 243.993,19.259 243.792,19.259 243.885 M193.444 252.222 C 193.444 253.343,193.514 253.801,193.599 253.241 C 193.683 252.681,193.683 251.764,193.599 251.204 C 193.514 250.644,193.444 251.102,193.444 252.222 M91.278 264.259 C 91.278 271.593,91.328 274.645,91.388 271.043 C 91.449 267.440,91.449 261.440,91.388 257.709 C 91.328 253.978,91.278 256.926,91.278 264.259 M44.444 253.079 C 44.444 253.143,44.986 253.684,45.648 254.283 L 46.852 255.370 45.764 254.167 C 44.750 253.045,44.444 252.793,44.444 253.079 M298.637 253.519 C 298.717 254.291,326.334 254.924,327.088 254.171 C 327.244 254.016,320.975 253.934,313.159 253.990 C 299.823 254.085,298.935 254.051,298.754 253.434 C 298.600 252.910,298.576 252.927,298.637 253.519 M332.704 254.815 C 332.704 255.935,332.773 256.394,332.858 255.833 C 332.943 255.273,332.943 254.356,332.858 253.796 C 332.773 253.236,332.704 253.694,332.704 254.815 M250.828 265.262 L 250.741 277.006 247.870 277.132 L 245.000 277.258 247.882 277.333 C 251.466 277.426,251.142 278.700,251.018 264.996 L 250.915 253.519 250.828 265.262 M176.389 254.329 C 176.745 254.423,177.329 254.423,177.685 254.329 C 178.042 254.236,177.750 254.160,177.037 254.160 C 176.324 254.160,176.032 254.236,176.389 254.329 M219.717 265.447 L 219.630 277.006 216.759 277.132 L 213.889 277.258 216.771 277.333 C 220.354 277.426,220.031 278.675,219.907 265.181 L 219.804 253.889 219.717 265.447 M40.741 257.963 C 41.432 258.676,42.080 259.259,42.182 259.259 C 42.284 259.259,41.802 258.676,41.111 257.963 C 40.420 257.250,39.771 256.667,39.670 256.667 C 39.568 256.667,40.050 257.250,40.741 257.963 M186.005 258.421 L 193.306 258.534 193.434 261.861 L 193.563 265.187 193.541 261.760 L 193.519 258.333 186.111 258.321 L 178.704 258.309 186.005 258.421 M298.657 258.691 C 298.542 258.990,298.535 259.449,298.640 259.710 C 298.745 259.971,298.844 259.812,298.860 259.356 L 298.889 258.526 316.019 258.426 L 333.148 258.326 316.007 258.237 C 301.227 258.160,298.837 258.223,298.657 258.691 M43.069 263.148 C 43.072 264.167,43.144 264.539,43.229 263.976 C 43.314 263.413,43.312 262.580,43.224 262.125 C 43.136 261.669,43.066 262.130,43.069 263.148 M48.990 262.963 C 48.990 263.880,49.062 264.255,49.150 263.796 C 49.239 263.338,49.239 262.588,49.150 262.130 C 49.062 261.671,48.990 262.046,48.990 262.963 M56.753 265.926 C 56.753 266.639,56.829 266.931,56.922 266.574 C 57.015 266.218,57.015 265.634,56.922 265.278 C 56.829 264.921,56.753 265.213,56.753 265.926 M9.241 268.555 C 8.614 269.797,8.244 270.725,8.420 270.616 C 8.596 270.508,9.138 269.569,9.624 268.530 C 10.206 267.289,10.683 266.707,11.015 266.835 C 11.293 266.941,11.418 266.864,11.294 266.662 C 10.831 265.913,10.351 266.355,9.241 268.555 M312.870 272.493 C 313.736 272.571,315.153 272.571,316.019 272.493 C 316.884 272.415,316.176 272.352,314.444 272.352 C 312.713 272.352,312.005 272.415,312.870 272.493 M29.352 272.848 C 29.708 272.941,30.292 272.941,30.648 272.848 C 31.005 272.755,30.713 272.679,30.000 272.679 C 29.287 272.679,28.995 272.755,29.352 272.848 M58.889 272.708 C 58.889 272.772,59.431 273.314,60.093 273.912 L 61.296 275.000 60.208 273.796 C 59.194 272.674,58.889 272.422,58.889 272.708 M179.158 273.230 C 179.816 273.312,180.983 273.313,181.751 273.233 C 182.519 273.153,181.981 273.086,180.556 273.084 C 179.130 273.083,178.501 273.148,179.158 273.230 M195.102 277.309 C 195.974 277.387,197.307 277.386,198.065 277.306 C 198.824 277.227,198.111 277.163,196.481 277.164 C 194.852 277.165,194.231 277.230,195.102 277.309 M277.695 277.309 C 278.566 277.387,279.899 277.386,280.658 277.306 C 281.416 277.227,280.704 277.163,279.074 277.164 C 277.444 277.165,276.824 277.230,277.695 277.309 M178.068 277.681 C 179.144 277.756,180.811 277.755,181.772 277.679 C 182.732 277.603,181.852 277.542,179.815 277.543 C 177.778 277.544,176.992 277.606,178.068 277.681 M28.246 278.044 C 28.809 278.129,29.642 278.126,30.098 278.038 C 30.553 277.951,30.093 277.881,29.074 277.884 C 28.056 277.886,27.683 277.958,28.246 278.044 " stroke="none" fill="#fcd7a8" fill-rule="evenodd"></path><path id="path4" d="M172.500 136.203 C 174.995 136.267,179.079 136.267,181.574 136.203 C 184.069 136.139,182.028 136.086,177.037 136.086 C 172.046 136.086,170.005 136.139,172.500 136.203 M194.983 136.392 C 194.885 136.648,194.851 142.273,194.907 148.892 L 195.011 160.926 195.098 148.618 L 195.185 136.309 204.352 136.203 L 213.519 136.098 204.340 136.012 C 197.244 135.945,195.121 136.032,194.983 136.392 M326.651 155.648 C 327.559 156.616,328.351 157.407,328.410 157.407 C 328.689 157.407,328.395 157.075,326.759 155.540 L 325.000 153.889 326.651 155.648 M194.981 181.667 C 194.981 188.593,195.031 191.374,195.092 187.847 C 195.153 184.320,195.153 178.653,195.092 175.254 C 195.031 171.855,194.981 174.741,194.981 181.667 M329.421 204.907 L 328.333 206.111 329.537 205.023 C 330.199 204.425,330.741 203.883,330.741 203.820 C 330.741 203.533,330.435 203.785,329.421 204.907 M112.010 227.222 C 112.010 231.704,112.063 233.486,112.129 231.183 C 112.194 228.880,112.193 225.214,112.128 223.035 C 112.063 220.857,112.009 222.741,112.010 227.222 M180.648 235.829 C 181.718 235.903,183.468 235.903,184.537 235.829 C 185.606 235.754,184.731 235.693,182.593 235.693 C 180.454 235.693,179.579 235.754,180.648 235.829 M231.389 235.817 C 231.847 235.905,232.597 235.905,233.056 235.817 C 233.514 235.729,233.139 235.656,232.222 235.656 C 231.306 235.656,230.931 235.729,231.389 235.817 M236.389 235.811 C 236.745 235.904,237.329 235.904,237.685 235.811 C 238.042 235.718,237.750 235.641,237.037 235.641 C 236.324 235.641,236.032 235.718,236.389 235.811 M337.278 235.833 C 337.183 235.986,338.132 236.065,339.386 236.008 C 343.471 235.823,343.954 235.675,340.670 235.615 C 338.900 235.582,337.373 235.681,337.278 235.833 M369.074 235.789 C 371.727 236.065,374.732 236.089,374.573 235.833 C 374.478 235.681,372.952 235.582,371.182 235.615 C 369.411 235.647,368.463 235.726,369.074 235.789 M312.130 241.002 C 312.588 241.090,313.338 241.090,313.796 241.002 C 314.255 240.914,313.880 240.842,312.963 240.842 C 312.046 240.842,311.671 240.914,312.130 241.002 M16.667 241.227 C 16.667 241.291,17.208 241.832,17.870 242.431 L 19.074 243.519 17.986 242.315 C 16.972 241.193,16.667 240.941,16.667 241.227 M71.764 241.373 C 72.224 241.462,72.891 241.458,73.245 241.366 C 73.599 241.273,73.222 241.200,72.407 241.205 C 71.593 241.209,71.303 241.284,71.764 241.373 M75.097 241.373 C 75.558 241.462,76.224 241.458,76.578 241.366 C 76.932 241.273,76.556 241.200,75.741 241.205 C 74.926 241.209,74.636 241.284,75.097 241.373 M85.252 251.567 L 85.185 253.689 77.500 253.797 L 69.815 253.905 77.512 253.989 C 86.143 254.084,85.692 254.240,85.459 251.249 L 85.319 249.444 85.252 251.567 M199.426 264.259 C 199.426 271.593,199.476 274.645,199.536 271.043 C 199.597 267.440,199.597 261.440,199.537 257.709 C 199.476 253.978,199.427 256.926,199.426 264.259 M91.648 264.444 C 91.648 271.676,91.698 274.634,91.759 271.019 C 91.819 267.403,91.819 261.486,91.759 257.870 C 91.698 254.255,91.648 257.213,91.648 264.444 M44.815 253.079 C 44.815 253.143,45.356 253.684,46.019 254.283 L 47.222 255.370 46.134 254.167 C 45.120 253.045,44.815 252.793,44.815 253.079 M276.091 265.000 C 276.091 271.519,276.142 274.133,276.203 270.810 C 276.265 267.487,276.264 262.154,276.203 258.958 C 276.141 255.763,276.091 258.481,276.091 265.000 M305.833 253.981 C 309.755 254.041,316.171 254.041,320.093 253.981 C 324.014 253.921,320.806 253.872,312.963 253.872 C 305.120 253.872,301.912 253.921,305.833 253.981 M71.399 258.790 C 72.270 258.868,73.603 258.867,74.362 258.788 C 75.120 258.708,74.407 258.644,72.778 258.645 C 71.148 258.647,70.528 258.712,71.399 258.790 M85.319 261.852 C 85.319 263.787,85.381 264.579,85.457 263.611 C 85.534 262.644,85.534 261.060,85.457 260.093 C 85.381 259.125,85.319 259.917,85.319 261.852 M307.315 258.796 C 312.051 258.855,319.801 258.855,324.537 258.796 C 329.273 258.737,325.398 258.689,315.926 258.689 C 306.454 258.689,302.579 258.737,307.315 258.796 M62.693 265.556 C 62.693 266.472,62.766 266.847,62.854 266.389 C 62.942 265.931,62.942 265.181,62.854 264.722 C 62.766 264.264,62.693 264.639,62.693 265.556 M373.241 277.298 C 373.699 277.387,374.449 277.387,374.907 277.298 C 375.366 277.210,374.991 277.138,374.074 277.138 C 373.157 277.138,372.782 277.210,373.241 277.298 M24.727 278.040 C 25.187 278.128,25.854 278.125,26.208 278.032 C 26.562 277.940,26.185 277.867,25.370 277.871 C 24.556 277.875,24.266 277.951,24.727 278.040 " stroke="none" fill="#fcb454" fill-rule="evenodd"></path></g></svg>